<?xml version="1.0" standalone="no"?>
<!DOCTYPE svg PUBLIC "-//W3C//DTD SVG 20010904//EN"
 "http://www.w3.org/TR/2001/REC-SVG-20010904/DTD/svg10.dtd">
<svg version="1.0" xmlns="http://www.w3.org/2000/svg"
 width="500.000000pt" height="500.000000pt" viewBox="0 0 500.000000 500.000000"
 preserveAspectRatio="xMidYMid meet">
<metadata>
Created by potrace 1.14, written by Peter Selinger 2001-2017
</metadata>
<g transform="translate(0.000000,500.000000) scale(0.100000,-0.100000)"
fill="#000000" stroke="none">
<path d="M0 2500 l0 -2500 2500 0 2500 0 0 2500 0 2500 -2500 0 -2500 0 0
-2500z m2719 440 c49 -26 80 -200 88 -497 6 -238 -3 -328 -44 -433 -50 -125
-140 -187 -285 -197 -100 -7 -159 9 -198 54 -17 18 -30 44 -30 56 0 19 -6 15
-40 -24 -60 -71 -115 -93 -231 -93 -83 -1 -100 2 -119 19 -35 31 -51 79 -65
205 -17 139 -27 167 -67 176 -100 21 -252 -58 -406 -214 -55 -55 -162 -203
-162 -223 0 -4 21 -9 47 -12 60 -6 93 -41 93 -95 0 -76 -54 -112 -167 -112
-119 0 -173 45 -181 150 -8 109 56 225 216 392 203 211 392 309 570 294 155
-13 233 -92 247 -251 10 -108 12 -115 41 -115 14 0 38 7 54 15 33 17 73 68 62
80 -4 5 -2 5 4 2 13 -8 39 48 90 196 45 127 66 170 100 196 61 48 134 5 134
-78 0 -17 -19 -82 -42 -144 -27 -72 -43 -133 -45 -172 -5 -80 9 -97 82 -103
53 -4 56 -3 94 35 73 73 92 208 66 473 -39 395 -35 424 53 429 13 0 31 -3 41
-9z m844 -18 c41 -45 29 -111 -34 -182 -139 -158 -252 -320 -296 -425 -46
-109 -38 -218 20 -276 28 -28 35 -31 80 -26 78 7 104 33 259 260 109 160 171
207 273 207 56 0 102 -32 134 -95 22 -42 26 -65 30 -157 4 -129 -17 -210 -78
-305 -50 -78 -120 -116 -215 -117 -74 -1 -164 38 -193 84 l-18 29 -44 -44
c-53 -54 -93 -68 -179 -63 -117 7 -185 56 -244 175 -72 147 -43 342 84 558 57
96 162 236 242 323 66 70 69 72 115 72 34 0 53 -5 64 -18z m-1083 -1557 c11
-13 9 -43 -6 -96 -7 -26 -67 -46 -239 -79 -179 -35 -224 -40 -253 -29 -33 13
-42 26 -42 62 0 35 25 74 60 92 27 14 149 36 300 54 118 14 166 13 180 -4z"/>
<path d="M3761 2217 c-45 -46 -121 -155 -121 -173 0 -19 45 -52 80 -59 46 -8
95 19 138 74 27 36 32 51 32 95 0 39 -6 61 -21 80 -30 38 -60 33 -108 -17z"/>
</g>
</svg>
